<svg width="784" height="464" viewBox="0 0 784 464" fill="none" xmlns="http://www.w3.org/2000/svg">
<path d="M162.147 184.744C139.871 163.887 134.608 164.324 128.892 134.598C121.675 96.8456 83.3804 81.5719 64.0772 103.489C44.774 125.407 67.9794 167.308 75.4357 176.463C81.1513 183.481 78.5533 218.182 87.9685 251.573M83.0322 119.335C83.0322 119.335 131.256 195.953 167.888 277.894" stroke="black" stroke-width="2" stroke-linecap="round" stroke-linejoin="round"/>
<path d="M287.459 203.974C289.693 198.292 290.945 192.35 290.441 185.914C288.42 160.035 239.843 141.206 250.583 111.412C261.323 81.6187 263.079 50.536 227.944 47.1829C187.347 43.3047 178.966 84.4416 177.657 119.273C176.348 154.103 182.817 166.617 163.004 185.16C143.192 203.704 175.433 228.777 172.69 247.154C171.536 254.869 167.494 268.006 168.699 288.717M212.184 62.5137C212.184 62.5137 175.293 173.921 201.99 337.34" stroke="black" stroke-width="2" stroke-linecap="round" stroke-linejoin="round"/>
<path d="M212.517 359.944C195.822 322.545 169.39 275.502 132.187 263.015C83.0531 246.525 82.8244 257.193 61.9105 232.556C40.9966 207.92 6.91593 212.474 2.03168 236.393C-2.85257 260.312 31.3632 281.434 40.5705 285.073C49.7778 288.712 68.3172 332.646 102.159 351.169C136 369.691 152.721 333.233 165.592 358.707C165.862 359.148 166.137 359.585 166.407 360.017M19.88 234.35C19.88 234.35 143.841 287.729 194.003 359.866" stroke="black" stroke-width="2" stroke-linecap="round" stroke-linejoin="round"/>
<path d="M316.957 313.322C316.889 313.4 316.822 313.484 316.749 313.562C289.6 344.878 259.13 314.45 255.685 344.883C254.698 349.984 253.399 355.019 251.794 359.959M251.794 359.959L153.158 360.162C146.112 360.162 140.879 366.546 142.418 373.268L162.225 461.988M251.794 359.959C251.794 359.959 262 359.959 258 373.268L241 461.988M296.141 205.866C303.416 200.34 307.318 194.627 312.971 179.047C324.808 146.415 360.811 138.248 374.674 160.508C388.537 182.769 361.985 216.846 354.077 223.932C350.029 227.571 347.462 242.756 342.287 260.915M209.758 352.884C213.395 310.775 223.434 260.395 253.586 236.024C257.67 232.728 261.38 229.832 264.83 227.274M291.559 238.795C271.996 264.486 252.251 294.56 239.105 325.056M356.342 165.234C356.342 165.234 336.702 183.98 312.524 212.661" stroke="black" stroke-width="2" stroke-linecap="round" stroke-linejoin="round"/>
<path d="M692.675 203.621C692.675 203.621 713.485 195.661 724.454 182.826C730.99 175.158 739.34 164.854 738.862 161.823C738.483 159.401 736.264 159.838 733.666 161.241" stroke="black" stroke-width="2" stroke-linecap="round" stroke-linejoin="round"/>
<path d="M705.067 184.651C705.067 184.651 713.817 176.546 717.829 169.408C721.84 162.271 725.103 157.613 723.887 156.562C722.672 155.512 716.654 155.523 713.776 159.754C710.487 166.97 698.749 176.645 698.749 176.645C700.22 176.125 707.967 168.395 711.562 163.518C715.158 158.642 715.719 150.797 704.901 159.053C704.901 159.053 693.47 168.259 689.079 170.952C689.079 170.952 669.573 177.191 664.377 185.082C660.881 190.411 641.224 239.814 628.78 271.468C611.965 255.602 595.951 240.328 595.951 240.328L515.216 257.614C515.216 257.614 519.58 263.332 584.473 325.851C617.208 357.412 638.803 359.642 651.85 351.184C659.093 347.68 665.765 338.151 666.643 331.029L686.798 205.471C698.619 201.255 706.72 196.524 711.973 192.267C718.774 186.751 734.789 160.441 734.763 157.846C734.7 150.927 724.89 156.38 718.452 168.618M628.78 271.468C628.78 271.468 609.165 304.932 620.341 322.893" stroke="black" stroke-width="2" stroke-linecap="round" stroke-linejoin="round"/>
<path d="M290.535 238.098C290.535 238.098 268.956 232.551 256.6 221.02C249.232 214.148 239.77 204.853 239.9 201.785C240.004 199.384 242.196 199.508 244.852 200.553" stroke="black" stroke-width="2" stroke-linecap="round" stroke-linejoin="round"/>
<path d="M276.069 220.667C276.069 220.667 266.457 213.607 261.661 206.968C256.865 200.33 253.124 196.051 254.189 194.897C255.254 193.743 261.255 193.067 264.581 196.92C268.665 203.714 281.421 211.996 281.421 211.996C279.904 211.668 271.33 204.847 267.205 200.413C263.079 195.979 261.629 188.243 273.315 195.214C273.315 195.214 285.734 203.059 290.384 205.243C290.384 205.243 310.472 209.209 316.531 216.477C320.609 221.374 345.737 268.224 361.694 298.262C376.602 280.587 390.792 263.597 390.792 263.597L472.967 271.603C472.967 271.603 469.283 277.784 411.898 347.27C382.93 382.34 361.751 386.992 347.831 380.089C340.235 377.422 332.545 368.714 330.846 361.732L296.583 239.278C284.357 236.429 275.799 232.65 270.083 229.016C262.705 224.337 243.807 199.987 243.537 197.403C242.82 190.525 253.191 194.804 260.97 206.241M361.71 298.262C361.71 298.262 385.024 329.282 375.926 348.398" stroke="black" stroke-width="2" stroke-linecap="round" stroke-linejoin="round"/>
<path d="M621.749 262.49C621.749 262.49 587.03 224.379 560.385 216.248C551.162 213.43 533.438 213.472 513.485 215.073L513.636 215.796L528.185 215.115C523.67 233.871 505.151 255.108 472.291 258.497C439.432 261.887 441.635 228.273 446.093 225.512L456.729 222.798V222.627C441.141 225.476 428.099 228.569 421.287 231.158C398.706 239.746 377.475 276.802 377.475 276.802L404.224 309.678C404.224 309.678 403.424 308.794 403.153 331.18C402.883 353.565 422.415 370.211 422.415 370.211L410.76 463.199L592.823 461.926L570.87 318.24L621.749 262.49Z" fill="black"/>
<path d="M455.357 207.15L456.724 222.798L446.109 225.512C441.645 228.273 439.447 261.903 472.307 258.498C505.166 255.092 523.685 233.872 528.2 215.115L513.652 215.796L504.688 172.933" stroke="black" stroke-width="2" stroke-linecap="round" stroke-linejoin="round"/>
<path d="M509.152 157.051C509.152 157.051 535.423 160.129 533.942 136.028C532.955 119.912 518.874 118.872 509.645 119.912" stroke="black" stroke-width="2" stroke-linecap="round" stroke-linejoin="round"/>
<path d="M410.864 145.988C411.706 156.978 421.334 206.963 456.558 206.605C491.781 206.246 511.589 171.805 511.37 138.804C511.152 105.803 493.397 80.3763 471.086 80.0904C448.774 79.8044 404.769 66.4075 410.864 145.988Z" stroke="black" stroke-width="2" stroke-linecap="round" stroke-linejoin="round"/>
<path d="M509.487 36.5034L521.436 40.6643L514.116 61.7076L502.166 57.5467L509.487 36.5034Z" fill="black"/>
<path d="M522.531 44.5784C534.834 44.5784 544.807 34.6003 544.807 22.2918C544.807 9.98324 534.834 0.00518799 522.531 0.00518799C510.229 0.00518799 500.256 9.98324 500.256 22.2918C500.256 34.6003 510.229 44.5784 522.531 44.5784Z" fill="black"/>
<path d="M503.13 50.64C483.322 44.3601 462.081 41.4592 443.375 48.8933C386.708 74.5278 386.557 117.287 410.386 136.75C409.482 106.458 416.876 91.7665 427.283 84.8523C438.652 102.985 475.383 118.685 509.017 119.065C509.089 119.366 509.152 119.673 509.219 119.974C518.442 118.82 532.955 119.652 533.957 136.012C535.345 158.585 512.394 157.327 509.474 157.067C509.084 158.85 504.382 174.992 504.382 174.992L509.463 198.141L584.286 186.507C585.336 186.482 586.365 186.211 587.291 185.716C588.217 185.22 589.014 184.514 589.617 183.655C590.221 182.795 590.614 181.805 590.766 180.766C590.918 179.726 590.823 178.665 590.49 177.669C581.433 150.88 566.786 71.7413 503.13 50.64Z" fill="black"/>
<path d="M446.493 160.477L436.028 161.745L438.205 119.595M422.015 123.728C422.015 123.728 413.924 120.494 410.828 126.769M444.409 176.083C444.409 179.972 458.704 185.191 461.4 171.29C461.406 171.29 444.42 172.2 444.409 176.083Z" stroke="black" stroke-width="2" stroke-linecap="round" stroke-linejoin="round"/>
<path d="M470.311 126C470.311 126 457.54 127.887 455.97 119.569" stroke="black" stroke-width="2" stroke-linecap="round" stroke-linejoin="round"/>
<path d="M465.231 140.26C467.14 139.963 468.314 137.33 467.855 134.38C467.396 131.43 465.477 129.279 463.569 129.576C461.66 129.873 460.485 132.506 460.945 135.456C461.404 138.407 463.323 140.558 465.231 140.26Z" fill="black"/>
<path d="M426.532 147.195C428.44 146.898 429.615 144.265 429.156 141.315C428.697 138.364 426.777 136.214 424.869 136.511C422.961 136.808 421.786 139.441 422.245 142.391C422.704 145.342 424.624 147.493 426.532 147.195Z" fill="black"/>
<path d="M475.198 156.585C487.313 154.747 495.171 140.304 492.75 124.325C490.329 108.346 478.545 96.8821 466.43 98.7196C454.315 100.557 446.457 115 448.878 130.979C451.299 146.958 463.083 158.422 475.198 156.585Z" stroke="black" stroke-width="2" stroke-linecap="round" stroke-linejoin="round"/>
<path d="M415.202 167.27C427.317 165.433 435.175 150.99 432.754 135.011C430.333 119.032 418.549 107.568 406.434 109.405C394.319 111.243 386.46 125.686 388.882 141.665C391.303 157.644 403.087 169.108 415.202 167.27Z" stroke="black" stroke-width="2" stroke-linecap="round" stroke-linejoin="round"/>
<path d="M431.809 130.84L448.254 127.991M492.608 118.612L513.412 119.943" stroke="black" stroke-width="2" stroke-linecap="round" stroke-linejoin="round"/>
<path d="M2.37451 462.44H782.441" stroke="black" stroke-width="2" stroke-linecap="round" stroke-linejoin="round"/>
</svg>
