<svg width="365" height="251" viewBox="0 0 365 251" fill="none" xmlns="http://www.w3.org/2000/svg">
<mask id="path-1-inside-1_172063_179272" fill="white">
<path d="M120.499 248.997H47.3696V209.267H118.312"/>
</mask>
<path d="M47.3696 248.997H45.3696V250.997H47.3696V248.997ZM47.3696 209.267V207.267H45.3696V209.267H47.3696ZM120.499 246.997H47.3696V250.997H120.499V246.997ZM49.3696 248.997V209.267H45.3696V248.997H49.3696ZM47.3696 211.267H118.312V207.267H47.3696V211.267Z" fill="black" mask="url(#path-1-inside-1_172063_179272)"/>
<path d="M69.0959 210.592L69.1143 233.37L75.4584 223.041L81.8025 233.37L87.4776 224.134L92.661 232.576V210.461" stroke="black" stroke-width="2" stroke-linecap="round" stroke-linejoin="round"/>
<path d="M79.4718 80.2263L77.3062 72.187" stroke="black" stroke-width="2" stroke-linecap="round" stroke-linejoin="round"/>
<path d="M121.617 146.141C122.152 140.4 123.816 129.757 110.031 123.149C96.2467 116.542 87.8378 109.975 84.1633 95.2729" stroke="black" stroke-width="2" stroke-linecap="round" stroke-linejoin="round"/>
<path d="M86.71 93.1415L83.2744 80.3778C82.918 79.0539 81.5555 78.2695 80.2312 78.6257L78.4644 79.1009C77.14 79.4571 76.3553 80.8191 76.7116 82.1429L80.1473 94.9066C80.5037 96.2305 81.8662 97.0149 83.1905 96.6587L84.9573 96.1835C86.2817 95.8273 87.0664 94.4653 86.71 93.1415Z" fill="black"/>
<path d="M55.25 119.361L46.9236 119.354" stroke="black" stroke-width="2" stroke-linecap="round" stroke-linejoin="round"/>
<path d="M69.6059 115.739H56.3832C55.0117 115.739 53.8999 116.851 53.8999 118.222V120.05C53.8999 121.421 55.0117 122.533 56.3832 122.533H69.6059C70.9774 122.533 72.0892 121.421 72.0892 120.05V118.222C72.0892 116.851 70.9774 115.739 69.6059 115.739Z" fill="black"/>
<path d="M70.1558 118.817C70.1558 118.817 100.758 117.095 115.056 142.788" stroke="black" stroke-width="2" stroke-linecap="round" stroke-linejoin="round"/>
<path d="M250.809 176.309C258.653 176.309 264.227 178.245 264.601 196.905C264.974 215.564 264.192 232.432 279.594 232.216C293.826 232.016 290.664 225.929 297.242 226.197" stroke="black" stroke-width="2" stroke-linecap="round" stroke-linejoin="round"/>
<path d="M298.293 219.406H315.514C316.06 219.406 316.502 219.848 316.502 220.393V231.117C316.502 231.662 316.06 232.104 315.514 232.104H298.293C297.746 232.104 297.304 231.662 297.304 231.117V220.393C297.304 219.848 297.746 219.406 298.293 219.406Z" stroke="black" stroke-width="2"/>
<path d="M310.214 218.385L310.193 233.129" stroke="black" stroke-width="2" stroke-linejoin="round"/>
<path d="M317.142 222.742H325.671M317.142 228.428H325.671" stroke="black" stroke-width="2" stroke-linecap="round" stroke-linejoin="round"/>
<path d="M257.616 10.0046V17.5279M261.38 13.7663H253.856" stroke="black" stroke-width="2" stroke-linecap="round" stroke-linejoin="round"/>
<path d="M204.096 37.5511V45.0714M207.856 41.3128H200.333M160.906 1.00024V8.52048M164.666 4.76189H157.143M115.597 62.185V69.7053M119.36 65.9436H111.834M63.665 33.0475V40.5708M67.425 36.8092H59.9019M55.4516 144.557V152.077M59.2116 148.318H51.6885M40.3473 82.3123V89.8356M44.1104 86.0739H36.5842M291.664 103.899V111.422M295.427 107.661H287.904M305.577 41.5234V49.0467M309.337 45.2851H301.814M333.397 151.973V159.493M337.16 155.732H329.634" stroke="black" stroke-width="2" stroke-linecap="round" stroke-linejoin="round"/>
<path d="M228.511 160.549H261.111C261.184 160.548 261.257 160.538 261.328 160.519V250.014H115.866V161.117C115.963 161.155 116.067 161.174 116.171 161.175H176.952C177.14 161.174 177.324 161.115 177.477 161.005C177.631 160.896 177.747 160.742 177.81 160.565L207.56 130.413V247.143C207.56 247.386 207.657 247.619 207.829 247.791C208.001 247.963 208.234 248.059 208.477 248.059C208.72 248.059 208.953 247.963 209.125 247.791C209.296 247.619 209.393 247.386 209.393 247.143V131.323L227.341 160.024C227.423 160.156 227.538 160.264 227.673 160.339C227.809 160.415 227.962 160.454 228.117 160.455C228.239 160.515 228.374 160.547 228.511 160.549Z" fill="black"/>
<path d="M176.023 159.352V153.954H82.056L81.946 159.386L176.023 159.352ZM294.774 153.319H229.427V158.717L294.771 158.745L294.768 153.331" fill="black"/>
<path d="M294.756 151.221L260.781 120.554H250.155C250.155 120.554 250.906 130.999 241.544 132.462C239.556 132.859 234.611 129.592 232.225 122.969C232.109 122.072 234.125 136.08 226 136.785C215.224 136.874 200.74 121.214 200.74 121.214H115.863L82.1355 152.137H176.368L204.121 124.001C204.294 123.838 204.523 123.748 204.76 123.751C204.998 123.753 205.225 123.848 205.394 124.014C205.563 124.181 205.661 124.407 205.667 124.644C205.673 124.882 205.586 125.112 205.425 125.287L177.853 153.224V157.911L207.545 127.806C207.666 127.686 207.817 127.602 207.982 127.561L208.067 127.494C208.273 127.366 208.522 127.324 208.758 127.379C208.995 127.433 209.2 127.579 209.329 127.784L227.591 156.992V152.748L215.343 133.485C215.213 133.28 215.169 133.031 215.222 132.794C215.275 132.556 215.42 132.35 215.626 132.219C215.831 132.089 216.08 132.045 216.317 132.098C216.555 132.151 216.761 132.296 216.892 132.502L228.972 151.502H294.75" fill="black"/>
<path d="M207.673 128.038C207.751 127.899 207.864 127.783 208.001 127.701C208.137 127.619 208.293 127.574 208.452 127.571C208.299 127.531 208.138 127.531 207.985 127.571C207.835 127.69 207.726 127.853 207.673 128.038Z" fill="black"/>
<path d="M243.707 68.2946C237.598 66.6184 233.196 67.6534 233.196 67.6534C229.311 59.0035 217.008 50.9672 217.008 50.9672C208.354 55.4708 212.328 73.8363 212.328 73.8363L207.383 75.6897C201.201 68.1847 192.545 59.9744 190.049 59.7973C184.285 59.3882 184.087 85.2251 184.087 85.2251C170.064 93.5636 155.72 102.278 144.559 109.786C144.971 104.421 147.528 97.4901 153.759 89.0234C165.152 73.5279 167.669 53.0343 157.159 40.641C142.409 23.2373 128.896 29.1607 120.86 36.8458C112.732 44.6133 111.495 58.2982 124.22 49.2055C137.021 40.0456 143.298 44.7904 149.303 56.0937C155.308 67.3969 136.761 84.7946 128.108 98.9129C123.254 106.833 120.863 114.659 120.967 121.202H179.673C179.554 121.336 179.438 121.468 179.334 121.599L182.245 121.202H200.935C208.397 128.38 225.89 141.757 229.797 134.047C231.767 130.166 232.628 125.91 231.81 121.871C233.541 125.177 238.96 134.52 243.67 131.904C247.751 129.638 251.001 123.293 250.21 116.637C253.246 113.837 255.582 110.857 257.045 107.731C268.967 86.2846 249.128 69.7877 243.707 68.2946Z" stroke="black" stroke-width="2" stroke-linecap="round" stroke-linejoin="round"/>
<path d="M249.8 81.0757C257.088 69.9495 274.312 68.3618 274.312 68.3618M252.848 90.0798C254.571 86.6357 267.29 79.4849 276.829 82.2665" stroke="black" stroke-width="2" stroke-linecap="round" stroke-linejoin="round"/>
<path d="M211.122 99.4809C205.908 97.7771 195.483 96.6077 187.505 104.265M210.676 94.8918C205.642 90.5225 192.26 89.3287 182.987 96.3482" stroke="black" stroke-width="2" stroke-linecap="round" stroke-linejoin="round"/>
<path d="M192.835 62.0046C192.835 62.0046 186.21 77.7626 193.497 83.0723" stroke="black" stroke-width="2" stroke-linecap="round" stroke-linejoin="round"/>
<path d="M218.403 53.1321C218.403 53.1321 214.958 65.0399 218.138 73.128" stroke="black" stroke-width="2" stroke-linecap="round" stroke-linejoin="round"/>
<path d="M219.726 92.6365C220.97 92.2089 221.432 90.2709 220.757 88.3079C220.082 86.3448 218.526 85.1 217.281 85.5276C216.037 85.9551 215.576 87.8931 216.251 89.8562C216.926 91.8193 218.482 93.0641 219.726 92.6365Z" fill="black"/>
<path d="M237.609 86.9422C238.853 86.5146 239.315 84.5766 238.64 82.6135C237.965 80.6504 236.409 79.4057 235.164 79.8332C233.92 80.2608 233.459 82.1988 234.134 84.1619C234.809 86.125 236.365 87.3697 237.609 86.9422Z" fill="black"/>
<path d="M236.003 90.6262L233.804 94.2474C233.643 94.4993 233.389 94.6783 233.098 94.7462C232.806 94.814 232.499 94.7654 232.243 94.6107L228.838 92.5803C228.656 92.4778 228.509 92.3231 228.417 92.1362C228.324 91.9494 228.289 91.739 228.318 91.5324C228.346 91.3258 228.436 91.1325 228.575 90.9774C228.715 90.8224 228.898 90.7128 229.1 90.6628L234.705 89.0721C235.673 88.7942 236.498 89.7927 236.003 90.6262Z" fill="black"/>
<path d="M230.133 98.055C233.642 102.504 233.529 96.9619 232.973 94.043C234.103 96.5802 237.094 100.259 237.555 96.1803" stroke="black" stroke-width="2" stroke-linecap="round" stroke-linejoin="round"/>
<path d="M225.756 136.233C225.401 135.262 219.86 124.246 214.384 120.096M222.246 116.829C222.509 116.918 228.966 127.516 229.222 134.752" stroke="black" stroke-width="2" stroke-linecap="round" stroke-linejoin="round"/>
<path d="M179.322 121.605C184.356 115.379 207.423 103.328 220.251 109.156C233.08 114.985 234.161 125.446 229.79 134.053" stroke="black" stroke-width="2" stroke-linecap="round" stroke-linejoin="round"/>
<path d="M235.692 115.498C235.692 115.498 241.654 126.82 241.785 132.316M243.111 112.991C243.111 112.991 247.482 126.166 244.901 131.265" stroke="black" stroke-width="2" stroke-linecap="round" stroke-linejoin="round"/>
<path d="M225.151 111.092C226.76 108.506 240.909 100.055 247.176 108.848C248.316 110.445 249.559 113.556 250.066 115.242" stroke="black" stroke-width="2" stroke-linecap="round" stroke-linejoin="round"/>
<path d="M1 249.244H364" stroke="black" stroke-width="2" stroke-linecap="round" stroke-linejoin="round"/>
</svg>
