<svg width="370" height="247" viewBox="0 0 370 247" fill="none" xmlns="http://www.w3.org/2000/svg">
<path d="M224.469 25.0128C224.498 25.3174 224.524 25.6221 224.534 25.9235C219.294 26.4647 214.054 29.5371 213.246 31.057C213.163 31.2134 221.996 25.8338 222.434 25.8338C222.282 25.9252 222.173 24.9579 221.996 24.9581C221.838 24.9567 221.996 25.8338 222.434 25.8338C222.32 25.7742 211.717 31.3208 211.634 31.2218C221.12 33.2775 221.596 25.519 221.558 25.396C221.521 25.273 211.402 30.6334 211.415 30.5054C221.996 27.1474 224.395 26.198 224.456 26.0847C225.569 23.9847 224.336 25.396 224.336 23.9595C224.384 24.2836 224.423 24.5753 224.456 24.8767C224.206 22.5044 223.44 19.889 222.009 16.9949C222.091 17.1666 222.175 17.319 222.253 17.5037C218.492 18.6056 223.054 12.8209 220.345 16.7521C220.255 16.8819 220.136 16.9881 219.996 17.0615C219.857 17.1349 219.701 17.1733 219.544 17.1734C219.366 17.1733 219.192 17.1248 219.041 17.0332C218.889 16.9415 218.765 16.8102 218.682 16.6534C218.6 16.4967 218.809 17.3502 218.819 17.1734C218.83 16.9966 222.152 18.3576 222.253 18.2116C220.245 13.1358 217.334 16.9463 221.338 15.7309C221.448 15.9254 221.558 16.1166 221.662 16.3175C211.624 -2.89436 177.452 13.4007 171.346 33.29C165.239 53.1793 195.2 57.2725 205.718 48.5902C211.688 43.677 225.721 37.8921 224.469 25.0128Z" fill="black"/>
<path d="M221.669 16.3276C221.786 16.5545 221.899 16.7781 221.993 17.0017C221.899 16.7781 221.786 16.5545 221.669 16.3276ZM224.456 24.8835V25.0132C224.463 24.971 224.459 24.9257 224.456 24.8835Z" fill="black"/>
<path d="M260.273 10.481C260.273 10.7388 260.375 10.9861 260.558 11.1685C260.74 11.3508 260.988 11.4532 261.246 11.4532C261.504 11.4532 261.752 11.3508 261.934 11.1685C262.117 10.9861 262.219 10.7388 262.219 10.481V6.69888H266.006C266.264 6.69888 266.512 6.59644 266.694 6.41411C266.877 6.23178 266.979 5.98447 266.979 5.72662C266.979 5.46878 266.877 5.22147 266.694 5.03914C266.512 4.8568 266.264 4.75436 266.006 4.75436H262.219V0.972262C262.219 0.714402 262.117 0.467104 261.934 0.284769C261.752 0.102434 261.504 0 261.246 0C260.988 0 260.74 0.102434 260.558 0.284769C260.375 0.467104 260.273 0.714402 260.273 0.972262V4.75436H256.486C256.228 4.75436 255.98 4.8568 255.798 5.03914C255.615 5.22147 255.513 5.46878 255.513 5.72662C255.513 5.98447 255.615 6.23178 255.798 6.41411C255.98 6.59644 256.228 6.69888 256.486 6.69888H260.273V10.481ZM101.685 35.8149H97.8983V32.0328C97.8983 31.7749 97.7957 31.5276 97.6131 31.3453C97.4307 31.163 97.1832 31.0605 96.9249 31.0605C96.6666 31.0605 96.4191 31.163 96.2367 31.3453C96.0541 31.5276 95.9515 31.7749 95.9515 32.0328V35.8149H92.1651C91.9069 35.8149 91.6593 35.9173 91.477 36.0998C91.2943 36.2819 91.1918 36.5292 91.1918 36.7871C91.1918 37.0451 91.2943 37.2924 91.477 37.4745C91.6593 37.657 91.9069 37.7594 92.1651 37.7594H95.9515V41.5415C95.9515 41.7995 96.0541 42.0468 96.2367 42.2289C96.4191 42.4114 96.6666 42.5138 96.9249 42.5138C97.1832 42.5138 97.4307 42.4114 97.6131 42.2289C97.7957 42.0468 97.8983 41.7995 97.8983 41.5415V37.7594H101.685C101.943 37.7594 102.191 37.657 102.373 37.4745C102.556 37.2924 102.658 37.0451 102.658 36.7871C102.658 36.5292 102.556 36.2819 102.373 36.0998C102.191 35.9173 101.943 35.8149 101.685 35.8149ZM83.8688 80.5195H80.0824V76.7374C80.0824 76.4794 79.9798 76.2321 79.7972 76.05C79.6148 75.8675 79.3673 75.7651 79.109 75.7651C78.8507 75.7651 78.6032 75.8675 78.4208 76.05C78.2382 76.2321 78.1356 76.4794 78.1356 76.7374V80.5195H74.3492C74.091 80.5195 73.8434 80.6219 73.661 80.8043C73.4784 80.9865 73.3758 81.2338 73.3758 81.4917C73.3758 81.7497 73.4784 81.997 73.661 82.1791C73.8434 82.3616 74.091 82.464 74.3492 82.464H78.1356V86.2461C78.1356 86.5041 78.2382 86.7513 78.4208 86.9335C78.6032 87.1159 78.8507 87.2184 79.109 87.2184C79.3673 87.2184 79.6148 87.1159 79.7972 86.9335C79.9798 86.7513 80.0824 86.5041 80.0824 86.2461V82.464H83.8688C84.127 82.464 84.3746 82.3616 84.5569 82.1791C84.7396 81.997 84.8421 81.7497 84.8421 81.4917C84.8421 81.2338 84.7396 80.9865 84.5569 80.8043C84.3746 80.6219 84.127 80.5195 83.8688 80.5195ZM32.517 60.4714H28.7306V56.6893C28.7306 56.4314 28.6281 56.1841 28.4455 56.0019C28.263 55.8195 28.0154 55.7171 27.7573 55.7171C27.4991 55.7171 27.2515 55.8195 27.069 56.0019C26.8864 56.1841 26.7839 56.4314 26.7839 56.6893V60.4714H22.9975C22.7393 60.4714 22.4917 60.5738 22.3092 60.7563C22.1267 60.9384 22.0241 61.1857 22.0241 61.4437C22.0241 61.7017 22.1267 61.949 22.3092 62.1311C22.4917 62.3135 22.7393 62.416 22.9975 62.416H26.7839V66.2013C26.7839 66.4593 26.8864 66.7066 27.069 66.8887C27.2515 67.0712 27.4991 67.1736 27.7573 67.1736C28.0154 67.1736 28.263 67.0712 28.4455 66.8887C28.6281 66.7066 28.7306 66.4593 28.7306 66.2013V62.416H32.517C32.7753 62.416 33.0229 62.3135 33.2052 62.1311C33.3879 61.949 33.4904 61.7017 33.4904 61.4437C33.4904 61.1857 33.3879 60.9384 33.2052 60.7563C33.0229 60.5738 32.7753 60.4714 32.517 60.4714ZM58.4216 119.112H54.6352V115.33C54.6352 115.072 54.5327 114.824 54.35 114.642C54.1677 114.46 53.9201 114.357 53.6619 114.357C53.4036 114.357 53.156 114.46 52.9737 114.642C52.791 114.824 52.6885 115.072 52.6885 115.33V119.112H48.9021C48.6438 119.112 48.3963 119.214 48.2139 119.397C48.0312 119.579 47.9287 119.826 47.9287 120.084C47.9287 120.342 48.0312 120.589 48.2139 120.771C48.3963 120.954 48.6438 121.056 48.9021 121.056H52.6885V124.838C52.6885 125.096 52.791 125.344 52.9737 125.526C53.156 125.708 53.4036 125.811 53.6619 125.811C53.9201 125.811 54.1677 125.708 54.35 125.526C54.5327 125.344 54.6352 125.096 54.6352 124.838V121.056H58.4216C58.6799 121.056 58.9275 120.954 59.1098 120.771C59.2925 120.589 59.395 120.342 59.395 120.084C59.395 119.826 59.2925 119.579 59.1098 119.397C58.9275 119.214 58.6799 119.112 58.4216 119.112ZM10.4929 96.403H6.70652V92.6209C6.70652 92.3629 6.60396 92.1156 6.42142 91.9335C6.23888 91.751 5.99128 91.6486 5.73315 91.6486C5.47501 91.6486 5.22742 91.751 5.04488 91.9335C4.86234 92.1156 4.75978 92.3629 4.75978 92.6209V96.403H0.97337C0.715216 96.403 0.467636 96.5054 0.285093 96.6879C0.102551 96.87 0 97.1173 0 97.3752C0 97.6332 0.102551 97.8805 0.285093 98.0626C0.467636 98.2451 0.715216 98.3475 0.97337 98.3475H4.75978V102.13C4.75978 102.388 4.86234 102.635 5.04488 102.817C5.22742 102.999 5.47501 103.102 5.73315 103.102C5.99128 103.102 6.23888 102.999 6.42142 102.817C6.60396 102.635 6.70652 102.388 6.70652 102.13V98.3475H10.4929C10.7511 98.3475 10.9987 98.2451 11.1812 98.0626C11.3637 97.8805 11.4663 97.6332 11.4663 97.3752C11.4663 97.1173 11.3637 96.87 11.1812 96.6879C10.9987 96.5054 10.7511 96.403 10.4929 96.403ZM310.576 94.102H306.79V90.3199C306.79 90.0619 306.687 89.8146 306.505 89.6325C306.322 89.45 306.075 89.3476 305.816 89.3476C305.558 89.3476 305.311 89.45 305.128 89.6325C304.946 89.8146 304.843 90.0619 304.843 90.3199V94.102H301.053C300.795 94.102 300.548 94.2044 300.365 94.3868C300.183 94.569 300.08 94.8163 300.08 95.0742C300.08 95.3322 300.183 95.5795 300.365 95.7616C300.548 95.9441 300.795 96.0465 301.053 96.0465H304.843V99.8189C304.843 100.077 304.946 100.324 305.128 100.506C305.311 100.689 305.558 100.791 305.816 100.791C306.075 100.791 306.322 100.689 306.505 100.506C306.687 100.324 306.79 100.077 306.79 99.8189V96.0465H310.576C310.835 96.0465 311.082 95.9441 311.264 95.7616C311.447 95.5795 311.55 95.3322 311.55 95.0742C311.55 94.8163 311.447 94.569 311.264 94.3868C311.082 94.2044 310.835 94.102 310.576 94.102ZM323.658 137.05H319.872V133.268C319.872 133.01 319.769 132.763 319.587 132.581C319.404 132.398 319.157 132.296 318.899 132.296C318.64 132.296 318.393 132.398 318.21 132.581C318.028 132.763 317.925 133.01 317.925 133.268V137.05H314.139C313.881 137.05 313.633 137.152 313.451 137.335C313.268 137.517 313.165 137.764 313.165 138.022C313.165 138.28 313.268 138.528 313.451 138.71C313.633 138.892 313.881 138.995 314.139 138.995H317.925V142.78C317.925 143.038 318.028 143.285 318.21 143.467C318.393 143.65 318.64 143.752 318.899 143.752C319.157 143.752 319.404 143.65 319.587 143.467C319.769 143.285 319.872 143.038 319.872 142.78V138.995H323.658C323.917 138.995 324.164 138.892 324.347 138.71C324.528 138.528 324.632 138.28 324.632 138.022C324.632 137.764 324.528 137.517 324.347 137.335C324.164 137.152 323.917 137.05 323.658 137.05ZM360.591 93.4765C360.591 93.7345 360.695 93.9817 360.877 94.1639C361.058 94.3463 361.305 94.4487 361.565 94.4487C361.824 94.4487 362.071 94.3463 362.252 94.1639C362.434 93.9817 362.538 93.7345 362.538 93.4765V89.6944H366.311C366.571 89.6944 366.818 89.592 366.999 89.4095C367.181 89.2274 367.285 88.9801 367.285 88.7221C367.285 88.4641 367.181 88.2169 366.999 88.0347C366.818 87.8523 366.571 87.7499 366.311 87.7499H362.525V83.9678C362.525 83.7098 362.421 83.4625 362.24 83.2804C362.058 83.0979 361.811 82.9955 361.552 82.9955C361.292 82.9955 361.046 83.0979 360.864 83.2804C360.682 83.4625 360.578 83.7098 360.578 83.9678V87.7499H356.805C356.545 87.7499 356.299 87.8523 356.117 88.0347C355.935 88.2169 355.831 88.4641 355.831 88.7221C355.831 88.9801 355.935 89.2274 356.117 89.4095C356.299 89.592 356.545 89.6944 356.805 89.6944H360.591V93.4765ZM269.221 157.523H265.435V153.741C265.435 153.483 265.332 153.235 265.149 153.053C264.967 152.871 264.72 152.768 264.461 152.768C264.203 152.768 263.955 152.871 263.773 153.053C263.59 153.235 263.488 153.483 263.488 153.741V157.523H259.702C259.443 157.523 259.196 157.625 259.013 157.807C258.831 157.99 258.728 158.237 258.728 158.495C258.728 158.753 258.831 159 259.013 159.182C259.196 159.365 259.443 159.467 259.702 159.467H263.488V163.252C263.488 163.51 263.59 163.758 263.773 163.94C263.955 164.122 264.203 164.225 264.461 164.225C264.72 164.225 264.967 164.122 265.149 163.94C265.332 163.758 265.435 163.51 265.435 163.252V159.467H269.221C269.479 159.467 269.727 159.365 269.909 159.182C270.092 159 270.194 158.753 270.194 158.495C270.194 158.237 270.092 157.99 269.909 157.807C269.727 157.625 269.479 157.523 269.221 157.523ZM368.505 157.523H364.718V153.741C364.718 153.483 364.615 153.235 364.433 153.053C364.251 152.871 364.005 152.768 363.745 152.768C363.485 152.768 363.239 152.871 363.057 153.053C362.875 153.235 362.772 153.483 362.772 153.741V157.523H358.985C358.726 157.523 358.479 157.625 358.297 157.807C358.116 157.99 358.012 158.237 358.012 158.495C358.012 158.753 358.116 159 358.297 159.182C358.479 159.365 358.726 159.467 358.985 159.467H362.772V163.252C362.772 163.51 362.875 163.758 363.057 163.94C363.239 164.122 363.485 164.225 363.745 164.225C364.005 164.225 364.251 164.122 364.433 163.94C364.615 163.758 364.718 163.51 364.718 163.252V159.467H368.505C368.764 159.467 369.011 159.365 369.193 159.182C369.374 159 369.478 158.753 369.478 158.495C369.478 158.237 369.374 157.99 369.193 157.807C369.011 157.625 368.764 157.523 368.505 157.523Z" fill="black"/>
<path d="M141.012 207.941C140.975 207.96 140.944 207.976 140.92 207.988L111.426 218.078L111.396 218.089L111.367 218.1C111.275 218.137 111.174 218.144 111.078 218.117C110.982 218.091 110.898 218.034 110.838 217.955C110.778 217.877 110.746 217.78 110.746 217.681C110.747 217.582 110.78 217.486 110.84 217.408L110.851 217.393L110.862 217.379L120.839 203.609L122.649 201.11L119.649 201.842L119.655 201.863C119.649 201.842 119.649 201.842 119.649 201.842L119.648 201.842L119.644 201.843L119.626 201.847C119.61 201.851 119.585 201.857 119.551 201.865C119.484 201.881 119.384 201.905 119.253 201.935C118.99 201.996 118.603 202.084 118.106 202.193C117.113 202.411 115.684 202.709 113.948 203.033C110.474 203.681 105.784 204.425 100.904 204.82C96.0105 205.215 90.9866 205.253 86.8203 204.517C82.6001 203.772 79.5667 202.289 78.2128 199.921C76.8283 197.5 76.8987 194.145 78.0304 190.235C79.1514 186.361 81.2487 182.172 83.5806 178.277C85.9066 174.391 88.4367 170.848 90.389 168.272C91.364 166.986 92.1926 165.944 92.7766 165.224C93.0683 164.865 93.299 164.586 93.4561 164.398C93.5346 164.304 93.5946 164.232 93.6345 164.185C93.6546 164.161 93.6695 164.144 93.6796 164.132L93.6903 164.119L93.6929 164.116L93.6936 164.116L95.6776 161.795L92.6576 162.258L76.3374 164.76L76.22 164.778L76.1087 164.82C76.0162 164.855 75.915 164.858 75.8205 164.829C75.7258 164.8 75.6437 164.741 75.5863 164.661C75.5289 164.581 75.4997 164.484 75.5032 164.385C75.5065 164.291 75.5396 164.201 75.597 164.127L96.6685 140.554L96.6698 140.552L96.6711 140.551L96.6714 140.55L96.673 140.549L96.6838 140.537C96.6941 140.525 96.7104 140.507 96.7327 140.483C96.7775 140.434 96.8466 140.36 96.9391 140.263C97.124 140.068 97.4024 139.783 97.7694 139.428C98.5033 138.717 99.5886 137.728 100.982 136.628C103.634 134.535 107.377 132.058 111.917 130.324L162.11 188.342C158.614 194.595 153.437 199.456 149.034 202.798C146.759 204.525 144.706 205.835 143.225 206.711C142.484 207.149 141.887 207.479 141.479 207.697C141.274 207.806 141.117 207.888 141.012 207.941Z" fill="white" stroke="black" stroke-width="2"/>
<path d="M42.523 174.531C45.4188 174.531 47.7662 172.186 47.7662 169.293C47.7662 166.401 45.4188 164.056 42.523 164.056C39.6272 164.056 37.2798 166.401 37.2798 169.293C37.2798 172.186 39.6272 174.531 42.523 174.531Z" fill="black"/>
<path d="M122.807 141.169L47.6631 168.26" stroke="black" stroke-width="2" stroke-linecap="round" stroke-linejoin="round"/>
<path d="M48.8311 224.557C51.7269 224.557 54.0743 222.212 54.0743 219.32C54.0743 216.427 51.7269 214.083 48.8311 214.083C45.9353 214.083 43.5879 216.427 43.5879 219.32C43.5879 222.212 45.9353 224.557 48.8311 224.557Z" fill="black"/>
<path d="M135.221 155.507L53.6621 216.251" stroke="black" stroke-width="2" stroke-linecap="round" stroke-linejoin="round"/>
<path d="M101.642 246.634C104.538 246.634 106.885 244.289 106.885 241.396C106.885 238.504 104.538 236.159 101.642 236.159C98.7464 236.159 96.3989 238.504 96.3989 241.396C96.3989 244.289 98.7464 246.634 101.642 246.634Z" fill="black"/>
<path d="M148.023 170.943L103.891 236.665M300.94 25.4277L313.262 16.9302" stroke="black" stroke-width="2" stroke-linecap="round" stroke-linejoin="round"/>
<path d="M315.881 19.8373C318.777 19.8373 321.124 17.4925 321.124 14.6C321.124 11.7076 318.777 9.36279 315.881 9.36279C312.985 9.36279 310.638 11.7076 310.638 14.6C310.638 17.4925 312.985 19.8373 315.881 19.8373Z" fill="black"/>
<path d="M167.303 80.6331L130.538 109.25C129.78 109.84 129.152 110.58 128.693 111.424C128.235 112.268 127.955 113.197 127.873 114.154C127.791 115.11 127.907 116.074 128.215 116.983C128.523 117.893 129.016 118.729 129.662 119.439L132.411 122.46L110.51 126.958L165.619 190.651L174.979 169.294L178.925 173.636C180.161 174.996 181.884 175.813 183.719 175.911C185.555 176.01 187.355 175.381 188.73 174.161L249.004 120.687C261.134 109.927 270.713 96.6041 277.047 81.6864L301.057 25.1494L246.09 37.9508" stroke="black" stroke-width="2" stroke-linecap="round" stroke-linejoin="round"/>
<path d="M226.843 88.1748C226.701 88.1748 226.561 88.144 226.432 88.084C226.303 88.0241 226.189 87.9366 226.097 87.828L218.414 78.666C218.329 78.5685 218.263 78.4551 218.222 78.3322C218.182 78.2091 218.166 78.0794 218.176 77.9505C218.186 77.8211 218.222 77.6954 218.281 77.5803C218.34 77.4653 218.422 77.3632 218.522 77.2799C218.621 77.197 218.736 77.1344 218.86 77.0965C218.984 77.0582 219.114 77.0453 219.243 77.0582C219.372 77.0709 219.497 77.1094 219.611 77.1713C219.725 77.2332 219.825 77.3172 219.906 77.4183L226.963 85.8446L233.092 80.6981L222.752 68.3828C222.665 68.2855 222.599 68.1721 222.557 68.0489C222.514 67.9258 222.497 67.7955 222.507 67.6655C222.516 67.5359 222.551 67.4092 222.61 67.2932C222.67 67.1775 222.752 67.0744 222.851 66.9908C222.951 66.9069 223.067 66.844 223.191 66.8057C223.315 66.7675 223.447 66.7545 223.576 66.7675C223.706 66.7808 223.831 66.8197 223.946 66.8822C224.06 66.9448 224.16 67.0297 224.241 67.1318L235.208 80.2119C235.373 80.4093 235.453 80.664 235.431 80.9204C235.408 81.1767 235.285 81.4137 235.088 81.5796L227.469 87.9544C227.293 88.0989 227.071 88.1767 226.843 88.1748ZM175.56 108.135C175.418 108.135 175.278 108.105 175.15 108.045C175.022 107.986 174.908 107.899 174.817 107.792L161.482 92.1286C161.346 91.9701 161.265 91.7728 161.251 91.565C161.236 91.3576 161.288 91.1509 161.4 90.9752C161.512 90.7995 161.678 90.6644 161.872 90.5895C162.066 90.515 162.28 90.5046 162.481 90.56L164.327 91.0689C164.576 91.1369 164.787 91.3009 164.915 91.5245C165.042 91.7478 165.076 92.0129 165.008 92.2615C164.949 92.4858 164.809 92.6805 164.616 92.8092L175.673 105.799L181.809 100.665L177.536 95.5704C177.377 95.3718 177.302 95.1193 177.327 94.8662C177.352 94.6134 177.476 94.3804 177.671 94.2174C177.866 94.054 178.117 93.974 178.371 93.9934C178.624 94.0132 178.86 94.1315 179.028 94.3227L183.924 100.156C184.007 100.254 184.069 100.367 184.107 100.489C184.146 100.611 184.16 100.739 184.149 100.866C184.138 100.994 184.101 101.118 184.042 101.231C183.983 101.344 183.902 101.445 183.804 101.527L176.179 107.921C176.004 108.062 175.785 108.138 175.56 108.135ZM170.141 126.394H170.054C169.801 126.369 169.568 126.246 169.405 126.051L157.195 111.493C157.113 111.395 157.051 111.282 157.013 111.159C156.975 111.037 156.961 110.909 156.973 110.782C156.984 110.654 157.02 110.531 157.08 110.417C157.139 110.304 157.22 110.204 157.319 110.122L164.937 103.747C165.035 103.665 165.149 103.603 165.27 103.565C165.393 103.527 165.521 103.513 165.649 103.524C165.776 103.536 165.9 103.572 166.014 103.631C166.127 103.691 166.227 103.772 166.309 103.87L178.515 118.425C178.598 118.523 178.66 118.636 178.698 118.758C178.737 118.88 178.751 119.008 178.74 119.135C178.729 119.263 178.693 119.386 178.634 119.5C178.575 119.613 178.493 119.714 178.395 119.796L170.774 126.171C170.596 126.318 170.372 126.397 170.141 126.394ZM159.308 111L170.265 124.064L176.387 118.94L165.43 105.873L159.308 111ZM244.815 88.1521H244.744C244.488 88.1355 244.249 88.0192 244.078 87.828L231.661 73.4385C231.577 73.3416 231.513 73.2295 231.473 73.1079C231.433 72.9864 231.416 72.8581 231.426 72.7304C231.435 72.6027 231.47 72.4782 231.527 72.3638C231.585 72.2494 231.665 72.1477 231.762 72.0644L239.28 65.5826C239.376 65.4987 239.489 65.4345 239.611 65.3943C239.732 65.3538 239.86 65.338 239.988 65.3474C240.116 65.3567 240.241 65.3911 240.355 65.4488C240.47 65.5065 240.572 65.5859 240.655 65.6831L253.076 80.0499C253.243 80.2456 253.328 80.4991 253.312 80.7564C253.297 81.0131 253.18 81.2529 252.988 81.424L245.47 87.9058C245.29 88.0662 245.056 88.154 244.815 88.1521ZM233.754 72.92L244.912 85.8154L250.96 80.5944L239.802 67.6989L233.754 72.92ZM158.334 103.446C158.119 103.445 157.91 103.374 157.739 103.242C157.569 103.111 157.447 102.926 157.393 102.718C157.339 102.509 157.355 102.289 157.44 102.091C157.524 101.893 157.672 101.729 157.861 101.624C159.36 100.791 161.121 99.4854 161.001 98.0108C160.82 95.7876 156.696 93.5903 155.606 93.1981C155.362 93.1197 155.158 92.9486 155.04 92.7217C154.922 92.4948 154.897 92.2304 154.973 91.986C155.01 91.8622 155.071 91.7475 155.153 91.6477C155.235 91.5479 155.336 91.4655 155.45 91.4053C155.564 91.345 155.689 91.3077 155.818 91.2964C155.947 91.2847 156.076 91.2986 156.199 91.3378C156.261 91.3573 162.52 93.8139 162.932 97.7548C163.146 99.803 161.761 101.676 158.808 103.316C158.664 103.399 158.501 103.443 158.334 103.446Z" fill="black"/>
<path d="M222.902 65.8674C222.075 68.2433 221.1 70.5651 219.982 72.8191C209.083 93.2366 181.696 97.602 161.528 90.0249C161.286 89.9338 161.018 89.9422 160.783 90.0485C160.547 90.1552 160.363 90.3506 160.272 90.592C160.181 90.8335 160.189 91.1015 160.296 91.3365C160.403 91.5718 160.598 91.7552 160.84 91.8463C167.311 94.2387 174.157 95.4569 181.057 95.4436C197.351 95.4436 213.717 88.6929 221.701 73.7298C223.011 71.0865 224.131 68.3541 225.053 65.5531L222.902 65.8674ZM225.676 52.421L227.623 52.097C227.642 50.9153 227.579 49.734 227.435 48.5612C227.412 48.3862 225.517 48.8852 225.53 48.9825C225.658 50.0934 225.709 51.2122 225.683 52.3303C225.679 52.3659 225.676 52.3919 225.676 52.421ZM151.097 137.637C150.929 137.638 150.762 137.626 150.597 137.601C149.71 137.473 148.907 137.006 148.357 136.298C147.808 135.591 147.554 134.698 147.651 133.807C147.747 132.917 148.185 132.099 148.873 131.525C149.561 130.951 150.445 130.665 151.34 130.729C152.233 130.793 153.068 131.201 153.668 131.867C154.267 132.533 154.584 133.405 154.553 134.3C154.521 135.195 154.143 136.043 153.499 136.665C152.854 137.287 151.993 137.636 151.097 137.637ZM151.097 132.646C150.701 132.673 150.331 132.853 150.065 133.148C149.8 133.443 149.659 133.829 149.673 134.225C149.687 134.621 149.854 134.997 150.14 135.272C150.425 135.547 150.807 135.701 151.204 135.701C151.6 135.701 151.982 135.547 152.267 135.272C152.553 134.997 152.72 134.621 152.734 134.225C152.748 133.829 152.608 133.443 152.342 133.148C152.076 132.853 151.706 132.673 151.311 132.646C151.237 132.639 151.163 132.639 151.09 132.646H151.097ZM139.293 123.552C139.126 123.553 138.959 123.541 138.793 123.516C138.113 123.419 137.478 123.122 136.967 122.664C136.456 122.206 136.092 121.607 135.922 120.942C135.752 120.277 135.783 119.577 136.012 118.931C136.24 118.284 136.655 117.719 137.205 117.308C137.754 116.897 138.414 116.657 139.099 116.621C139.785 116.584 140.466 116.751 141.057 117.101C141.647 117.451 142.121 117.968 142.417 118.586C142.714 119.205 142.82 119.898 142.722 120.577C142.604 121.401 142.192 122.156 141.562 122.702C140.933 123.248 140.127 123.55 139.293 123.552ZM139.293 118.561C138.928 118.561 138.575 118.692 138.298 118.93C138.022 119.168 137.839 119.497 137.784 119.857C137.727 120.257 137.831 120.663 138.074 120.987C138.317 121.31 138.678 121.524 139.079 121.581C139.479 121.638 139.886 121.534 140.21 121.292C140.534 121.049 140.748 120.688 140.805 120.288C140.833 120.09 140.822 119.888 140.772 119.694C140.722 119.5 140.635 119.317 140.514 119.157C140.393 118.997 140.242 118.862 140.07 118.76C139.897 118.659 139.705 118.592 139.507 118.564C139.433 118.558 139.358 118.557 139.283 118.561H139.293ZM165.35 152.645C165.185 152.645 165.02 152.635 164.857 152.613C164.176 152.516 163.539 152.22 163.027 151.761C162.515 151.303 162.151 150.703 161.98 150.038C161.809 149.373 161.84 148.672 162.068 148.025C162.296 147.377 162.712 146.811 163.262 146.399C163.812 145.987 164.472 145.747 165.158 145.71C165.845 145.673 166.527 145.84 167.118 146.191C167.71 146.541 168.184 147.058 168.481 147.677C168.777 148.297 168.884 148.99 168.786 149.67C168.666 150.495 168.254 151.25 167.623 151.797C166.992 152.343 166.185 152.644 165.35 152.645ZM165.35 147.654C164.985 147.655 164.633 147.786 164.356 148.024C164.079 148.262 163.897 148.59 163.841 148.95C163.785 149.351 163.89 149.757 164.133 150.081C164.376 150.404 164.738 150.618 165.139 150.675C165.54 150.73 165.946 150.625 166.27 150.382C166.593 150.139 166.807 149.778 166.865 149.378C166.894 149.18 166.883 148.978 166.834 148.783C166.784 148.589 166.696 148.407 166.575 148.246C166.455 148.086 166.304 147.951 166.131 147.85C165.958 147.748 165.766 147.681 165.567 147.654C165.494 147.65 165.42 147.651 165.347 147.657L165.35 147.654ZM179.765 167.602C179.599 167.603 179.433 167.591 179.269 167.566C178.589 167.469 177.953 167.174 177.442 166.716C176.93 166.258 176.566 165.659 176.395 164.995C176.225 164.33 176.255 163.63 176.483 162.983C176.71 162.336 177.125 161.771 177.674 161.359C178.224 160.947 178.883 160.708 179.569 160.67C180.254 160.633 180.936 160.799 181.527 161.149C182.117 161.498 182.592 162.015 182.888 162.633C183.186 163.252 183.292 163.944 183.195 164.623C183.078 165.449 182.666 166.205 182.037 166.752C181.407 167.299 180.6 167.6 179.765 167.602ZM179.765 162.611C179.524 162.611 179.286 162.668 179.071 162.778C178.856 162.888 178.67 163.048 178.528 163.243C178.387 163.439 178.294 163.666 178.258 163.904C178.222 164.143 178.242 164.387 178.319 164.616C178.395 164.845 178.525 165.052 178.697 165.221C178.87 165.39 179.08 165.516 179.311 165.588C179.542 165.66 179.786 165.676 180.024 165.635C180.262 165.594 180.487 165.497 180.68 165.352C180.842 165.233 180.978 165.083 181.081 164.91C181.183 164.738 181.25 164.546 181.277 164.348C181.333 163.948 181.228 163.541 180.984 163.218C180.741 162.895 180.38 162.681 179.98 162.624C179.903 162.614 179.826 162.61 179.749 162.611H179.765ZM211.841 138.994C211.704 138.994 211.568 138.966 211.443 138.91C211.318 138.854 211.206 138.772 211.114 138.67L202.331 128.873C202.21 128.738 202.128 128.572 202.096 128.393C202.064 128.214 202.083 128.03 202.151 127.861C202.218 127.692 202.332 127.546 202.478 127.438C202.625 127.331 202.799 127.267 202.98 127.253L210.829 126.559C212.503 117.067 220.514 115.54 225.222 115.475C225.868 115.465 226.507 115.612 227.084 115.902C227.661 116.193 228.159 116.619 228.535 117.145C228.921 117.677 229.174 118.295 229.271 118.946C229.369 119.597 229.309 120.262 229.096 120.884C225.498 131.521 217.415 131.754 214.696 131.508L212.779 138.314C212.732 138.481 212.64 138.633 212.514 138.754C212.388 138.874 212.232 138.958 212.062 138.998C211.989 139.005 211.915 139.003 211.841 138.994ZM205.08 129.022L211.384 136.058L213.055 130.153C213.123 129.913 213.28 129.708 213.495 129.581C213.71 129.453 213.966 129.413 214.21 129.47C214.583 129.554 223.483 131.398 227.253 120.249C227.363 119.925 227.393 119.578 227.341 119.24C227.288 118.901 227.155 118.581 226.951 118.305C226.759 118.03 226.502 117.807 226.202 117.655C225.903 117.504 225.57 117.428 225.235 117.436C220.099 117.498 213.743 119.313 212.63 127.606C212.601 127.825 212.497 128.027 212.337 128.18C212.178 128.332 211.971 128.426 211.75 128.445L205.08 129.022ZM243.145 115.803C243.018 115.791 242.889 115.806 242.767 115.844C242.646 115.882 242.532 115.944 242.434 116.026L234.816 122.401C234.718 122.483 234.637 122.584 234.578 122.697C234.519 122.811 234.482 122.934 234.471 123.062C234.46 123.189 234.474 123.317 234.513 123.439C234.552 123.561 234.614 123.674 234.696 123.772L239.316 129.282L240.773 127.985L236.811 123.26L242.94 118.133L246.753 122.67L248.21 121.374L243.807 116.124C243.637 115.934 243.399 115.819 243.145 115.803ZM250.111 103.756L242.493 110.131C242.394 110.213 242.313 110.313 242.254 110.427C242.194 110.54 242.158 110.664 242.146 110.791C242.135 110.918 242.149 111.047 242.187 111.169C242.225 111.291 242.287 111.404 242.369 111.502L249.615 120.142C250.098 119.705 250.588 119.267 251.052 118.827L244.488 111L250.617 105.873L256.71 113.139C257.155 112.659 257.593 112.167 258.028 111.687L251.483 103.88C251.402 103.781 251.301 103.7 251.187 103.641C251.074 103.581 250.95 103.545 250.823 103.533C250.695 103.522 250.567 103.536 250.445 103.574C250.322 103.613 250.209 103.674 250.111 103.756ZM206.335 146.128C206.208 146.116 206.08 146.131 205.958 146.169C205.836 146.207 205.723 146.269 205.625 146.351L198.006 152.726C197.908 152.808 197.827 152.909 197.768 153.022C197.709 153.135 197.673 153.259 197.662 153.387C197.651 153.514 197.665 153.642 197.703 153.764C197.742 153.886 197.804 153.999 197.886 154.097L203.629 160.945L205.086 159.649L200.002 153.588L206.131 148.461L211.063 154.346L212.519 153.05L207.004 146.487C206.922 146.386 206.821 146.301 206.706 146.24C206.591 146.178 206.465 146.14 206.335 146.128ZM191.43 150.548C191.348 150.45 191.247 150.369 191.134 150.309C191.021 150.25 190.897 150.214 190.769 150.202C190.642 150.191 190.513 150.205 190.391 150.243C190.269 150.281 190.156 150.343 190.057 150.425L182.439 156.8L184.198 157.866L190.56 152.541L200.18 164.011L201.637 162.714L191.43 150.548ZM240.867 43.2299L239.044 43.9883C247.428 57.2078 260.052 74.54 274.864 86.4988C275.152 85.9002 275.436 85.2974 275.717 84.6904C261.373 72.9844 249.102 56.1772 240.867 43.2299ZM246.493 39.2437L245.487 41.2498C253.401 53.1502 264.87 68.1814 278.06 78.899C278.106 78.9349 278.155 78.9677 278.206 78.9962L278.991 77.1424C265.766 66.3114 254.3 51.0728 246.493 39.2437ZM175.499 168.441L132.917 121.607L130.701 122.064L174.642 170.392L175.499 168.441Z" fill="black"/>
<path d="M133.962 106.586L193.094 170.288L194.551 168.998L135.503 105.387L133.962 106.586ZM149.938 106.78C153.342 106.78 157.336 105.484 161.482 101.433C161.582 101.346 161.664 101.239 161.721 101.12C161.779 101 161.811 100.87 161.816 100.738C161.821 100.606 161.8 100.473 161.752 100.35C161.705 100.226 161.632 100.113 161.539 100.019C161.446 99.9241 161.335 99.8492 161.212 99.799C161.09 99.7491 160.958 99.7244 160.825 99.7267C160.693 99.7293 160.562 99.7588 160.441 99.8136C160.32 99.8687 160.212 99.9474 160.123 100.046C150.139 109.804 141.541 101.77 141.181 101.423L140.925 101.164L139.384 102.366C139.977 102.911 144.4 106.78 149.938 106.78Z" fill="black"/>
<path d="M210.497 45.6966C210.497 45.6966 235.675 36.0258 243.014 36.8231C250.353 37.6203 244.192 42.1057 243.248 42.4881L204.67 56.1646C204.67 56.1646 203.505 50.6811 210.497 45.6966Z" stroke="black" stroke-width="2" stroke-linecap="round" stroke-linejoin="round"/>
<path d="M223.79 40.8865C224.692 39.4573 225.572 38.067 226.266 36.9975C228.608 33.3969 231.587 24.8507 227.716 17.0434C224.524 10.5876 215.607 -0.800841 197.766 2.89375C178.428 6.89948 148.49 15.2318 150.616 41.3564C152.741 67.4811 172.529 60.3998 172.529 60.3998L166.689 84.7323C172.821 90.6534 203.453 87.8079 212.525 70.991M217.512 54.4885L218.304 51.7532" stroke="black" stroke-width="2" stroke-linecap="round" stroke-linejoin="round"/>
<path d="M160.76 95.9324V95.934C160.653 96.9766 160.337 97.9871 159.831 98.9049C159.325 99.8221 158.64 100.628 157.816 101.276C156.607 102.214 153.977 103.417 151.026 103.854C148.079 104.29 145.031 103.932 142.801 102.037L142.801 102.037C141.615 101.03 141.242 99.6292 141.407 97.7904C141.575 95.9152 142.29 93.7662 143.1 91.4755C143.171 91.2736 143.243 91.0707 143.316 90.8669C144.045 88.8141 144.807 86.6709 145.143 84.7118C145.513 82.5576 145.416 80.3678 143.958 78.6812C142.652 77.1706 141.24 76.4551 139.812 76.3669C138.415 76.2807 137.161 76.8064 136.162 77.4584C135.159 78.1128 134.34 78.9415 133.779 79.5887C133.496 79.9157 133.273 80.2038 133.119 80.4125C133.042 80.5168 132.982 80.6018 132.941 80.662C132.92 80.6925 132.903 80.7165 132.892 80.734L132.883 80.7469C130.203 84.5229 127.61 87.0372 125.346 88.5134C123.058 90.0045 121.218 90.3681 119.973 90.0852C118.816 89.8224 117.952 88.9467 117.646 87.3162C117.332 85.6397 117.64 83.2158 118.936 80.174C121.539 74.0643 125.451 69.9484 130.24 68.173C135.021 66.4006 140.861 66.8929 147.469 70.3732C158.407 76.1313 161.509 88.7632 160.76 95.9324Z" fill="white" stroke="black" stroke-width="2"/>
<path d="M213.246 31.0573C213.164 31.2136 213.04 31.3445 212.888 31.4359C212.737 31.5273 212.563 31.5756 212.386 31.5758C212.228 31.5744 212.072 31.5355 211.932 31.4624C211.818 31.4027 211.717 31.3211 211.634 31.2221C211.552 31.1231 211.491 31.0088 211.453 30.8859C211.415 30.7629 211.402 30.6336 211.415 30.5056C211.427 30.3776 211.465 30.2534 211.526 30.1401C212.24 28.7984 214.852 26.8993 218.194 25.5284C217.506 23.7522 216.543 22.0953 215.339 20.6184C213.699 21.6768 212.278 23.0386 211.15 24.6306C211.061 24.7605 210.941 24.8667 210.802 24.9401C210.662 25.0135 210.506 25.0519 210.349 25.052C210.171 25.0519 209.998 25.0033 209.846 24.9117C209.694 24.8201 209.57 24.6888 209.488 24.532C209.405 24.3752 209.367 24.1989 209.378 24.0221C209.388 23.8453 209.447 23.6747 209.547 23.5288C210.763 21.8023 212.285 20.3129 214.038 19.1341C208.425 13.239 199.797 10.0597 196.588 9.57031C185.476 13.4205 174.551 22.8579 171.349 33.2871C165.239 53.1666 191.212 55.6102 205.722 48.5872C208.366 46.4061 212.6 44.05 216.384 40.9906C217.426 39.1884 218.173 37.2309 218.596 35.1927C219.303 32.6551 219.363 29.9813 218.772 27.4146C215.936 28.5878 213.746 30.1174 213.246 31.0573Z" fill="white"/>
<path d="M192.042 31.2201C192.919 30.8692 193.179 29.4628 192.624 28.0788C192.069 26.6949 190.908 25.8574 190.031 26.2083C189.155 26.5593 188.894 27.9656 189.45 29.3496C190.005 30.7336 191.166 31.571 192.042 31.2201Z" fill="black"/>
<path d="M204.673 26.4897C205.549 26.1387 205.81 24.7323 205.254 23.3484C204.699 21.9644 203.538 21.1269 202.662 21.4779C201.785 21.8288 201.525 23.2352 202.08 24.6191C202.635 26.0031 203.796 26.8405 204.673 26.4897Z" fill="black"/>
<path d="M203.435 29.0575L202.186 31.8317C202.093 32.0261 201.927 32.1766 201.725 32.2511C201.522 32.3255 201.299 32.3181 201.102 32.2303L198.506 31.0798C198.367 31.0233 198.249 30.9265 198.166 30.8018C198.083 30.6771 198.04 30.5304 198.042 30.3807C198.043 30.231 198.09 30.0854 198.176 29.9627C198.262 29.84 198.382 29.7459 198.522 29.6927L202.38 28.0723C202.521 28.0087 202.677 27.9882 202.83 28.0134C202.982 28.0385 203.124 28.1082 203.236 28.2136C203.349 28.319 203.428 28.4553 203.464 28.6055C203.499 28.7557 203.489 28.913 203.435 29.0575Z" fill="black"/>
<path d="M201.53 31.1447C202.221 32.788 205.31 36.1682 205.284 32.8723M201.611 31.1123C202.302 32.7588 203.369 38.0415 200.151 34.8362" stroke="black" stroke-width="2" stroke-linecap="round" stroke-linejoin="round"/>
<path d="M185.501 34.4342C182.257 32.8137 176.056 33.0438 170.716 36.0254C170.592 36.8143 170.533 37.6122 170.537 38.4107C175.485 35.1407 181.666 34.6805 184.625 36.168C184.74 36.2332 184.867 36.274 184.998 36.2889C185.129 36.3035 185.261 36.2915 185.388 36.2533C185.514 36.2153 185.631 36.1518 185.732 36.0672C185.833 35.9826 185.916 35.8783 185.975 35.7606C186.034 35.643 186.069 35.5147 186.077 35.3831C186.086 35.2518 186.067 35.1199 186.023 34.9958C185.979 34.872 185.909 34.7582 185.82 34.6617C185.73 34.5648 185.622 34.4876 185.501 34.4342ZM186.238 37.4449C181.585 37.1208 175.579 38.5306 171.459 43.1132C171.728 43.7575 172.054 44.3768 172.432 44.9638C177.153 39.1302 184.567 39.2825 186.102 39.3862C186.36 39.4037 186.614 39.3182 186.809 39.1483C187.004 38.9785 187.124 38.738 187.141 38.4804C187.159 38.2224 187.074 37.968 186.903 37.7732C186.733 37.5785 186.493 37.4592 186.235 37.4417L186.238 37.4449Z" fill="black"/>
<path d="M204.599 48.5708C212.931 44.4582 231.704 35.5328 221.666 16.321C211.627 -2.89094 177.455 13.4042 171.349 33.2934C165.243 53.1826 190.596 55.4901 204.599 48.5708Z" stroke="black" stroke-width="2" stroke-linecap="round" stroke-linejoin="round"/>
<path d="M192.63 61.4112C192.831 61.2427 193.035 61.0871 193.246 60.9121C194.221 60.1634 195.348 59.6378 196.549 59.3727C204.19 57.6226 235.902 50.3177 239.877 48.7588C244.4 46.9861 240.815 58.3324 233.855 60.9672C229.822 62.4969 214.388 69.8699 202.097 75.7974C192.948 80.218 184.862 67.9577 192.63 61.4112Z" stroke="black" stroke-width="2" stroke-linecap="round" stroke-linejoin="round"/>
<path d="M181.102 9.98241C176.775 11.9833 172.945 14.9338 169.904 18.6234C168.648 17.8517 166.896 16.7263 165.313 15.5374C164.384 14.8391 163.53 14.1317 162.873 13.4718C162.276 12.871 161.912 12.3778 161.756 12.0176C161.915 10.9277 162.456 10.169 163.36 9.62663C164.36 9.02707 165.839 8.67505 167.807 8.57552C171.192 8.4043 175.744 8.98873 181.102 9.98241Z" fill="white" stroke="black" stroke-width="2"/>
<path d="M172.448 17.0246C172.987 16.4833 173.529 15.9713 174.071 15.4949C167.348 13.6119 165.901 9.9076 165.826 9.72287C165.74 9.47964 165.561 9.28049 165.328 9.16926C165.095 9.05804 164.827 9.04384 164.583 9.12979C164.34 9.21574 164.141 9.39483 164.029 9.62759C163.918 9.86038 163.904 10.1278 163.99 10.371C164.064 10.5623 165.583 14.7235 172.448 17.0246Z" fill="black"/>
<path d="M151.736 22.4952C155.78 21.5328 161.462 21.4292 167.875 21.3379C165.476 24.8981 163.407 29.3689 162.043 34.984L161.908 35.2115C161.864 35.2092 161.817 35.2069 161.768 35.2047C161.374 35.1846 160.805 35.1486 160.114 35.0848C158.728 34.9574 156.862 34.7198 154.921 34.2801C152.975 33.8393 150.991 33.2034 149.352 32.2948C147.739 31.4009 146.534 30.2853 145.966 28.9043C145.687 27.0303 146.119 25.7361 147.02 24.7768C147.976 23.7586 149.553 23.0149 151.736 22.4952Z" fill="white" stroke="black" stroke-width="2"/>
<path d="M146.907 27.2375L146.931 27.2632L146.957 27.2867C149.266 29.3441 152.023 30.835 155.009 31.6409C157.558 32.3285 160.213 32.5011 162.82 32.1543C162.786 32.2677 162.751 32.3816 162.717 32.496C161.865 32.6049 161.007 32.6603 160.149 32.6616C155.171 32.645 150.374 30.795 146.677 27.4657C146.662 27.4513 146.649 27.4341 146.641 27.4152C146.632 27.3953 146.627 27.3739 146.627 27.3521C146.626 27.3304 146.63 27.3088 146.638 27.2886C146.646 27.2683 146.658 27.25 146.673 27.2345C146.689 27.2191 146.707 27.2069 146.727 27.1986C146.747 27.1904 146.769 27.1862 146.791 27.1865C146.812 27.1868 146.834 27.1915 146.854 27.2002C146.874 27.209 146.892 27.2216 146.907 27.2375Z" fill="black" stroke="black" stroke-width="2"/>
</svg>
